<?xml version="1.0" encoding="UTF-8"?>
<!DOCTYPE svg PUBLIC "-//W3C//DTD SVG 1.1//EN" "http://www.w3.org/Graphics/SVG/1.1/DTD/svg11.dtd">
<!-- Creator: CorelDRAW -->
<svg xmlns="http://www.w3.org/2000/svg" xml:space="preserve" width="2065px" height="445px" version="1.1" style="shape-rendering:geometricPrecision; text-rendering:geometricPrecision; image-rendering:optimizeQuality; fill-rule:evenodd; clip-rule:evenodd"
viewBox="0 0 2065 445"
 xmlns:xlink="http://www.w3.org/1999/xlink"
 xmlns:xodm="http://www.corel.com/coreldraw/odm/2003">
 <defs>
  <style type="text/css">
   <![CDATA[
    .str0 {stroke:#2768B0;stroke-width:2;stroke-miterlimit:22.9256}
    .str1 {stroke:#2768B0;stroke-width:0.9;stroke-miterlimit:22.9256}
    .fil0 {fill:#2768B0}
    .fil1 {fill:#2768B0;fill-rule:nonzero}
   ]]>
  </style>
 </defs>
 <g id="Camada_x0020_1">
  <metadata id="CorelCorpID_0Corel-Layer"/>
  <g id="_3106065320048">
   <g>
    <path class="fil0 str0" d="M225.36 366.98c0.44,0.73 0.44,2.15 0.07,4.26 -0.38,2.11 -1.13,4.91 -3.03,9.32 -1.9,4.41 -4.96,10.43 -7.27,14.65 -2.32,4.22 -3.91,6.64 -6.9,10.36 -2.99,3.72 -7.37,8.73 -12.53,13.47 -5.16,4.74 -11.1,9.21 -18.3,12.76 -7.21,3.54 -15.69,6.15 -27.7,8.06 -12,1.91 -27.53,3.11 -43.51,2.54 -15.97,-0.57 -32.4,-2.92 -44.4,-6.15 -12.01,-3.23 -19.6,-7.36 -26.01,-12.17 -6.42,-4.81 -11.67,-10.3 -15.93,-15.75 -4.25,-5.44 -7.51,-10.83 -10.08,-16.17 -2.57,-5.35 -4.45,-10.66 -5.85,-16.38 -1.4,-5.73 -2.32,-11.87 -2.88,-17.84 -0.57,-5.98 -0.77,-11.79 -0.92,-23.4 -0.15,-11.62 -0.23,-29.04 -0.25,-71.93 -0.02,-42.89 0.03,-111.24 0.13,-149.49 0.11,-38.26 0.27,-46.4 0.92,-52.46 0.64,-6.06 1.77,-10.02 3.42,-14.08 1.65,-4.05 3.82,-8.19 6.58,-12.53 2.76,-4.35 6.1,-8.9 9.44,-12.54 3.34,-3.63 6.69,-6.35 10.43,-8.83 3.74,-2.49 7.87,-4.74 11.95,-6.48 4.07,-1.73 8.08,-2.94 11.63,-3.68 3.55,-0.73 6.65,-0.98 11.49,-1.1 4.85,-0.13 11.45,-0.13 16.07,0.04 4.61,0.17 7.25,0.5 10.23,1.04 2.99,0.55 6.33,1.3 9.84,2.41 3.51,1.1 7.19,2.57 11.05,4.36 3.87,1.8 7.92,3.93 11.56,6.25 3.63,2.32 6.85,4.82 11.7,9.27 4.84,4.45 11.32,10.85 17.96,17.72 6.64,6.87 13.45,14.23 26.48,29.08 13.02,14.86 32.25,37.22 42.43,49.01 10.18,11.79 11.32,13 12.53,14.09 1.2,1.09 2.48,2.05 3.76,2.8 1.28,0.75 2.56,1.3 3.85,1.26 1.28,-0.03 2.58,-0.65 3.7,-1.36 1.12,-0.71 2.07,-1.5 3.03,-2.46 0.96,-0.96 1.93,-2.09 11.39,-13.1 9.47,-11.01 27.43,-31.9 39.76,-46.25 12.34,-14.34 19.04,-22.13 24.82,-28.49 5.78,-6.36 10.63,-11.29 14.55,-15.19 3.93,-3.91 6.94,-6.79 10.89,-9.82 3.95,-3.03 8.83,-6.21 12.95,-8.71 4.12,-2.51 7.46,-4.35 11.54,-5.84 4.09,-1.49 8.91,-2.63 12.94,-3.47 4.03,-0.83 7.27,-1.36 12.3,-1.67 5.02,-0.3 11.83,-0.39 17.51,-0.14 5.69,0.25 10.24,0.84 13.91,1.79 3.68,0.95 6.47,2.27 9.79,3.84 3.33,1.56 7.17,3.38 10.92,5.81 3.74,2.43 7.37,5.48 10.78,9.26 3.4,3.79 6.58,8.3 9,12.9 2.43,4.59 4.1,9.27 5.26,13.97 1.16,4.7 1.81,9.43 2.22,14.65 0.42,5.23 0.6,10.97 0.74,59.28 0.13,48.32 0.22,139.23 0.2,187.02 -0.02,47.79 -0.14,52.47 -0.62,56.75 -0.49,4.29 -1.32,8.17 -2.53,12.54 -1.21,4.37 -2.8,9.21 -5.04,14.23 -2.23,5.01 -5.11,10.19 -8.12,14.52 -3.01,4.32 -6.14,7.79 -9.86,11.42 -3.72,3.64 -8.03,7.44 -12.02,10.45 -3.99,3.01 -7.66,5.22 -11.6,7.03 -3.94,1.8 -8.15,3.2 -12.49,4.39 -4.35,1.19 -8.83,2.18 -38.45,2.47 -29.61,0.29 -84.35,-0.11 -111.68,-0.25 -27.34,-0.14 -27.28,-0.01 -27.34,-0.35 -0.06,-0.34 -0.24,-1.16 -0.31,-11.55 -0.07,-10.39 -0.03,-30.36 0.18,-41.16 0.2,-10.8 0.58,-12.43 1.27,-14.02 0.69,-1.59 1.69,-3.14 2.84,-4.49 1.15,-1.36 2.45,-2.53 3.95,-3.51 1.5,-0.98 3.22,-1.78 4.85,-2.24 1.63,-0.46 3.17,-0.58 5.13,-0.69 1.97,-0.1 4.35,-0.18 17.45,-0.25 13.1,-0.06 36.91,-0.1 49.91,-0.25 12.99,-0.14 15.16,-0.39 17.31,-0.71 2.16,-0.31 4.29,-0.69 7.02,-1.38 2.74,-0.69 6.08,-1.69 9.63,-3.51 3.56,-1.81 7.32,-4.45 10.93,-7.27 3.61,-2.82 7.08,-5.83 10.19,-9.42 3.12,-3.59 5.87,-7.77 8.09,-11.8 2.21,-4.03 3.89,-7.92 5.06,-11.93 1.17,-4.01 1.83,-8.15 2.13,-15.94 0.29,-7.79 0.2,-19.24 -0.14,-54.26 -0.34,-35.02 -0.94,-93.62 -1.29,-123.63 -0.34,-30.01 -0.43,-31.44 -0.68,-32.8 -0.26,-1.35 -0.68,-2.64 -1.36,-3.58 -0.68,-0.93 -1.62,-1.51 -2.66,-1.69 -1.04,-0.18 -2.17,0.04 -3.37,0.62 -1.2,0.58 -2.46,1.52 -3.6,2.61 -1.15,1.09 -2.18,2.33 -20.83,22.92 -18.64,20.59 -54.9,60.52 -73.62,81.06 -18.72,20.53 -19.89,21.66 -21.45,22.83 -1.57,1.17 -3.53,2.38 -5.69,3.47 -2.15,1.08 -4.49,2.04 -6.53,2.75 -2.05,0.71 -3.81,1.17 -5.81,1.55 -2.01,0.37 -4.26,0.67 -6.92,0.67 -2.65,0 -5.7,-0.3 -8.37,-0.8 -2.68,-0.5 -4.98,-1.21 -7.23,-2.13 -2.26,-0.92 -4.47,-2.04 -6.81,-3.53 -2.34,-1.48 -4.81,-3.32 -8.17,-6.62 -3.36,-3.3 -7.63,-8.06 -25.83,-28.26 -18.2,-20.2 -50.34,-55.82 -67,-74.22 -16.66,-18.4 -17.83,-19.56 -19.05,-20.48 -1.22,-0.92 -2.49,-1.58 -3.74,-1.72 -1.25,-0.14 -2.49,0.25 -3.51,0.95 -1.03,0.69 -1.85,1.68 -2.39,3.02 -0.54,1.35 -0.79,3.03 -0.89,4.85 -0.1,1.81 -0.03,3.75 -0.1,33.14 -0.06,29.38 -0.25,86.22 -0.34,120.71 -0.09,34.49 -0.08,46.65 0.37,55.15 0.45,8.51 1.35,13.36 2.52,17.98 1.17,4.62 2.63,9.02 4.89,12.87 2.27,3.85 5.34,7.16 8.2,9.96 2.86,2.8 5.49,5.1 8.68,7.23 3.2,2.13 6.96,4.09 10.7,5.7 3.74,1.61 7.46,2.86 12.13,3.64 4.67,0.78 10.29,1.09 24.72,1.4 14.44,0.31 37.69,0.63 49.75,0.82 12.07,0.18 12.94,0.22 13.38,0.95z"/>
    <path class="fil0 str0" d="M160.26 218.07c24.44,0 44.26,19.81 44.26,44.25 0,5.34 -0.95,10.46 -2.68,15.2l36.18 34.09 -19.72 20.93 -34.66 -32.65c-6.78,4.23 -14.79,6.68 -23.38,6.68 -24.44,0 -44.25,-19.81 -44.25,-44.25 0,-24.44 19.81,-44.25 44.25,-44.25z"/>
    <path class="fil0 str0" d="M321.16 218.17c-24.44,0 -44.25,19.81 -44.25,44.25 0,5.34 0.94,10.45 2.68,15.19l-36.19 34.1 19.73 20.93 34.65 -32.65c6.78,4.23 14.79,6.68 23.38,6.68 24.44,0 44.25,-19.81 44.25,-44.25 0,-24.44 -19.81,-44.25 -44.25,-44.25z"/>
   </g>
   <polygon class="fil1 str1" points="582.64,326.34 582.64,136.83 635.16,136.83 710.97,260.55 683.35,260.55 756.99,136.83 809.52,136.83 810.06,326.34 751.85,326.34 751.31,224.55 760.51,224.55 710.16,309.29 682,309.29 629.48,224.55 640.85,224.55 640.85,326.34 "/>
   <path id="_1" class="fil1 str1" d="M866.65 329.05c-10.11,0 -18.6,-3.29 -25.45,-9.88 -6.86,-6.59 -10.29,-15.03 -10.29,-25.31 0,-10.47 3.43,-18.87 10.29,-25.18 6.85,-6.32 15.34,-9.48 25.45,-9.48 10.1,0 18.59,3.16 25.45,9.48 6.85,6.31 10.28,14.71 10.28,25.18 0,10.28 -3.43,18.72 -10.28,25.31 -6.86,6.59 -15.35,9.88 -25.45,9.88z"/>
   <path id="_2" class="fil1 str1" d="M910.78 326.34l82.84 -189.51 62.82 0 82.84 189.51 -66.06 0 -61.19 -159.19 24.91 0 -61.19 159.19 -64.97 0zm49.27 -33.03l16.25 -46.02 87.17 0 16.25 46.02 -119.67 0z"/>
   <path id="_3" class="fil1 str1" d="M1221.59 381.58c-14.62,0 -28.34,-1.54 -41.16,-4.61 -12.81,-3.06 -23.82,-7.67 -33.03,-13.8l20.58 -41.7c5.78,4.51 13.13,8.08 22.07,10.7 8.93,2.61 17.37,3.92 25.31,3.92 12.63,0 21.66,-2.66 27.07,-7.99 5.42,-5.32 8.13,-12.95 8.13,-22.87l0 -12.46 2.7 -46.02 0.27 -46.03 0 -22.47 58.21 0 0 118.58c0,28.7 -7.94,50 -23.82,63.9 -15.89,13.9 -38,20.85 -66.33,20.85zm-11.92 -63.36c-12.45,0 -24.09,-2.93 -34.92,-8.8 -10.83,-5.86 -19.59,-14.12 -26.26,-24.77 -6.68,-10.65 -10.02,-23.28 -10.02,-37.9 0,-14.62 3.34,-27.26 10.02,-37.91 6.67,-10.65 15.43,-18.86 26.26,-24.63 10.83,-5.78 22.47,-8.67 34.92,-8.67 12.82,0 23.33,2.53 31.55,7.58 8.21,5.06 14.3,12.86 18.27,23.42 3.97,10.56 5.96,23.96 5.96,40.21 0,16.24 -1.99,29.64 -5.96,40.2 -3.97,10.56 -10.06,18.41 -18.27,23.56 -8.22,5.14 -18.73,7.71 -31.55,7.71zm16.25 -47.65c4.87,0 9.2,-0.99 12.99,-2.98 3.79,-1.98 6.77,-4.78 8.94,-8.39 2.16,-3.61 3.25,-7.76 3.25,-12.45 0,-4.88 -1.09,-9.07 -3.25,-12.59 -2.17,-3.52 -5.15,-6.23 -8.94,-8.13 -3.79,-1.89 -8.12,-2.84 -12.99,-2.84 -4.69,0 -8.98,0.95 -12.86,2.84 -3.88,1.9 -6.95,4.61 -9.21,8.13 -2.25,3.52 -3.38,7.71 -3.38,12.59 0,4.69 1.13,8.84 3.38,12.45 2.26,3.61 5.33,6.41 9.21,8.39 3.88,1.99 8.17,2.98 12.86,2.98z"/>
   <path id="_4" class="fil1 str1" d="M1420.58 329.05c-18.05,0 -33.8,-3.34 -47.24,-10.02 -13.45,-6.67 -23.87,-15.83 -31.27,-27.48 -7.4,-11.64 -11.1,-24.77 -11.1,-39.39 0,-14.98 3.65,-28.25 10.96,-39.8 7.31,-11.55 17.33,-20.57 30.05,-27.07 12.73,-6.5 27.03,-9.75 42.92,-9.75 14.61,0 28.11,2.89 40.47,8.67 12.37,5.77 22.29,14.35 29.78,25.72 7.49,11.37 11.24,25.45 11.24,42.23 0,2.17 -0.09,4.56 -0.27,7.18 -0.18,2.61 -0.36,5 -0.54,7.17l-113.99 0 0 -29.51 81.5 0 -23.02 7.85c0,-5.77 -1.03,-10.69 -3.11,-14.75 -2.07,-4.07 -4.92,-7.22 -8.53,-9.48 -3.61,-2.26 -7.94,-3.38 -12.99,-3.38 -5.06,0 -9.43,1.12 -13.13,3.38 -3.7,2.26 -6.55,5.41 -8.53,9.48 -1.99,4.06 -2.98,8.98 -2.98,14.75l0 9.21c0,6.31 1.26,11.73 3.79,16.24 2.53,4.51 6.14,7.9 10.83,10.15 4.69,2.26 10.38,3.39 17.06,3.39 6.86,0 12.49,-0.9 16.92,-2.71 4.42,-1.8 9.07,-4.51 13.94,-8.12l31.95 32.22c-7.22,7.76 -16.11,13.67 -26.67,17.73 -10.56,4.06 -23.24,6.09 -38.04,6.09z"/>
   <path id="_5" class="fil1 str1" d="M1618.49 175.54c11.37,0 21.66,2.3 30.87,6.91 9.2,4.6 16.47,11.77 21.79,21.52 5.33,9.75 7.99,22.38 7.99,37.9l0 84.47 -61.19 0 0 -73.91c0,-9.2 -1.62,-15.75 -4.87,-19.63 -3.25,-3.88 -7.67,-5.82 -13.27,-5.82 -4.15,0 -7.99,0.95 -11.51,2.85 -3.52,1.89 -6.31,5 -8.39,9.34 -2.07,4.33 -3.11,10.19 -3.11,17.59l0 69.58 -61.19 0 0 -148.09 58.21 0 0 43.32 -11.64 -12.46c5.77,-11.19 13.58,-19.58 23.42,-25.17 9.83,-5.6 20.8,-8.4 32.89,-8.4z"/>
   <path id="_6" class="fil1 str1" d="M1773.36 329.05c-12.82,0 -24.69,-3.11 -35.61,-9.34 -10.92,-6.23 -19.62,-15.07 -26.12,-26.53 -6.5,-11.46 -9.75,-25.13 -9.75,-41.02 0,-15.88 3.25,-29.55 9.75,-41.02 6.5,-11.46 15.2,-20.26 26.12,-26.39 10.92,-6.14 22.79,-9.21 35.61,-9.21 12.99,0 23.64,2.75 31.94,8.26 8.31,5.5 14.44,13.9 18.41,25.18 3.97,11.28 5.96,25.67 5.96,43.18 0,17.69 -1.85,32.22 -5.55,43.59 -3.7,11.37 -9.66,19.77 -17.87,25.18 -8.21,5.41 -19.18,8.12 -32.89,8.12zm14.62 -47.65c4.51,0 8.57,-1.08 12.18,-3.25 3.61,-2.16 6.5,-5.46 8.66,-9.88 2.17,-4.42 3.25,-9.79 3.25,-16.11 0,-6.5 -1.08,-11.87 -3.25,-16.11 -2.16,-4.24 -5.05,-7.44 -8.66,-9.61 -3.61,-2.17 -7.67,-3.25 -12.18,-3.25 -4.52,0 -8.58,1.08 -12.19,3.25 -3.61,2.17 -6.5,5.37 -8.66,9.61 -2.17,4.24 -3.25,9.61 -3.25,16.11 0,6.32 1.08,11.69 3.25,16.11 2.16,4.42 5.05,7.72 8.66,9.88 3.61,2.17 7.67,3.25 12.19,3.25zm25.99 44.94l0 -20.03 -0.27 -54.15 -2.71 -54.15 0 -72.55 61.19 0 0 200.88 -58.21 0z"/>
   <path id="_7" class="fil1 str1" d="M1931.74 381.58c-8.12,0 -16.38,-1.22 -24.77,-3.66 -8.4,-2.44 -15.12,-5.64 -20.17,-9.61l20.3 -41.97c3.07,2.35 6.55,4.25 10.43,5.69 3.88,1.44 7.62,2.17 11.23,2.17 5.42,0 9.57,-1.13 12.46,-3.39 2.88,-2.25 5.23,-5.64 7.03,-10.15l6.23 -15.7 4.33 -5.96 47.38 -120.75 57.94 0 -60.91 151.07c-5.42,13.54 -11.69,24.1 -18.82,31.68 -7.13,7.58 -15.07,12.91 -23.83,15.97 -8.75,3.07 -18.36,4.61 -28.83,4.61zm14.35 -48.47l-64.44 -154.86 62.81 0 44.4 115.34 -42.77 39.52z"/>
  </g>
 </g>
</svg>
